<svg width="59" height="59" viewBox="0 0 59 59" fill="none" xmlns="http://www.w3.org/2000/svg">
<g clip-path="url(#clip0_1511_648)">
<path d="M43.6569 33.9022C43.542 33.8471 39.2407 31.729 38.4764 31.4539C38.1643 31.3419 37.8301 31.2325 37.4745 31.2325C36.8937 31.2325 36.4058 31.5219 36.0258 32.0905C35.5961 32.7291 34.2954 34.2495 33.8935 34.7037C33.8411 34.7637 33.7694 34.8353 33.7265 34.8353C33.688 34.8353 33.0223 34.5612 32.8208 34.4736C28.2067 32.4694 24.7045 27.6496 24.2242 26.8368C24.1557 26.7199 24.1528 26.6669 24.1522 26.6669C24.1691 26.605 24.3242 26.4494 24.4043 26.3692C24.6386 26.1374 24.8924 25.8319 25.138 25.5363C25.2543 25.3963 25.3707 25.256 25.4851 25.1239C25.8414 24.7093 26 24.3875 26.1839 24.0147L26.2802 23.8211C26.7293 22.929 26.3458 22.1762 26.2218 21.9331C26.1201 21.7296 24.3039 17.3464 24.1108 16.8859C23.6465 15.7747 23.0329 15.2573 22.1803 15.2573C22.1012 15.2573 22.1803 15.2573 21.8485 15.2712C21.4445 15.2883 19.2445 15.5779 18.2718 16.1911C17.2402 16.8415 15.4951 18.9145 15.4951 22.5602C15.4951 25.8414 17.5774 28.9395 18.4714 30.1178C18.4936 30.1475 18.5344 30.2078 18.5936 30.2944C22.0173 35.2945 26.2854 39 30.6121 40.7284C34.7776 42.3923 36.7501 42.5846 37.8714 42.5846H37.8716C38.3429 42.5846 38.72 42.5476 39.0528 42.5149L39.2639 42.4948C40.7029 42.3672 43.8651 40.7286 44.5844 38.7297C45.151 37.1553 45.3005 35.4351 44.9235 34.8108C44.6653 34.3863 44.2203 34.1727 43.6569 33.9022Z" fill="#B0C6DA"/>
<path d="M30.0237 0C14.0446 0 1.04472 12.9022 1.04472 28.7612C1.04472 33.8905 2.41742 38.9115 5.01783 43.3058L0.0405659 57.9878C-0.0521484 58.2615 0.0168126 58.5642 0.21929 58.7703C0.365449 58.9195 0.563712 59 0.766189 59C0.84377 59 0.921926 58.9883 0.998166 58.964L16.3075 54.0992C20.4969 56.3375 25.2318 57.5191 30.0239 57.5191C46.0014 57.5193 58.9999 44.6184 58.9999 28.7612C58.9999 12.9022 46.0014 0 30.0237 0ZM30.0237 51.5281C25.5146 51.5281 21.1472 50.226 17.3931 47.7626C17.2668 47.6797 17.1203 47.6371 16.9728 47.6371C16.8948 47.6371 16.8167 47.649 16.7406 47.6731L9.07159 50.1109L11.5473 42.807C11.6274 42.5706 11.5873 42.3099 11.4398 42.1084C8.58101 38.2021 7.0698 33.5869 7.0698 28.7612C7.0698 16.2058 17.3668 5.99118 30.0235 5.99118C42.6786 5.99118 52.9745 16.2058 52.9745 28.7612C52.9747 41.3149 42.679 51.5281 30.0237 51.5281Z" fill="#B0C6DA"/>
</g>
<defs>
<clipPath id="clip0_1511_648">
<rect width="59" height="59" fill="white"/>
</clipPath>
</defs>
</svg>
