<svg width="33" height="26" viewBox="0 0 33 26" fill="none" xmlns="http://www.w3.org/2000/svg">
<g clip-path="url(#clip0_1551_615)">
<path d="M31.1429 0H1.85714C0.83147 0 0 0.83147 0 1.85714V1.85715C0 2.88282 0.83147 3.71429 1.85714 3.71429H31.1429C32.1685 3.71429 33 2.88282 33 1.85714C33 0.83147 32.1685 0 31.1429 0Z" fill="url(#paint0_linear_1551_615)"/>
<path d="M31.1429 22.2857H1.85714C0.83147 22.2857 0 23.1172 0 24.1428V24.1429C0 25.1685 0.83147 26 1.85714 26H31.1429C32.1685 26 33 25.1685 33 24.1428C33 23.1172 32.1685 22.2857 31.1429 22.2857Z" fill="url(#paint1_linear_1551_615)"/>
<path d="M31.1429 11.1429H10.8571C9.83147 11.1429 9 11.9744 9 13V13C9 14.0257 9.83147 14.8572 10.8571 14.8572H31.1429C32.1685 14.8572 33 14.0257 33 13C33 11.9744 32.1685 11.1429 31.1429 11.1429Z" fill="url(#paint2_linear_1551_615)"/>
</g>
<defs>
<linearGradient id="paint0_linear_1551_615" x1="-8.62256e-09" y1="3.46667" x2="36.0395" y2="3.46666" gradientUnits="userSpaceOnUse">
<stop stop-color="#5A7490"/>
<stop offset="1" stop-color="#B0C6DA"/>
</linearGradient>
<linearGradient id="paint1_linear_1551_615" x1="-3.90789" y1="26" x2="33" y2="26" gradientUnits="userSpaceOnUse">
<stop stop-color="#5A7490"/>
<stop offset="1" stop-color="#B0C6DA"/>
</linearGradient>
<linearGradient id="paint2_linear_1551_615" x1="5.21062" y1="13" x2="33.0001" y2="13" gradientUnits="userSpaceOnUse">
<stop stop-color="#5A7490"/>
<stop offset="1" stop-color="#B0C6DA"/>
</linearGradient>
<clipPath id="clip0_1551_615">
<rect width="33" height="26" fill="white"/>
</clipPath>
</defs>
</svg>
