<svg width="59" height="59" viewBox="0 0 59 59" fill="none" xmlns="http://www.w3.org/2000/svg">
<g clip-path="url(#clip0_1522_653)">
<path d="M42.7175 0H16.2814C7.30385 0 0 7.3042 0 16.2818V42.7179C0 51.6958 7.30385 58.9996 16.2814 58.9996H42.7175C51.6958 58.9996 58.9997 51.6954 58.9997 42.7179V16.2818C59 7.3042 51.6958 0 42.7175 0ZM53.7653 42.7179C53.7653 48.8094 48.8094 53.7649 42.7179 53.7649H16.2814C10.1903 53.7653 5.23474 48.8094 5.23474 42.7179V16.2818C5.23474 10.1906 10.1903 5.23473 16.2814 5.23473H42.7175C48.809 5.23473 53.7649 10.1906 53.7649 16.2818V42.7179H53.7653Z" fill="#B0C6DA"/>
<path d="M29.4996 14.2979C21.1167 14.2979 14.2969 21.1177 14.2969 29.5006C14.2969 37.8831 21.1167 44.7026 29.4996 44.7026C37.8825 44.7026 44.7023 37.8831 44.7023 29.5006C44.7023 21.1177 37.8825 14.2979 29.4996 14.2979ZM29.4996 39.4675C24.0035 39.4675 19.5316 34.9963 19.5316 29.5002C19.5316 24.0037 24.0031 19.5322 29.4996 19.5322C34.9961 19.5322 39.4676 24.0037 39.4676 29.5002C39.4676 34.9963 34.9957 39.4675 29.4996 39.4675Z" fill="#B0C6DA"/>
<path d="M45.3403 9.85913C44.3317 9.85913 43.341 10.2674 42.6287 10.9829C41.9129 11.6948 41.5015 12.6859 41.5015 13.6979C41.5015 14.7068 41.9133 15.6976 42.6287 16.413C43.3406 17.1249 44.3317 17.5367 45.3403 17.5367C46.3523 17.5367 47.3399 17.1249 48.0554 16.413C48.7708 15.6976 49.1791 14.7065 49.1791 13.6979C49.1791 12.6859 48.7708 11.6948 48.0554 10.9829C47.3434 10.2674 46.3523 9.85913 45.3403 9.85913Z" fill="#B0C6DA"/>
</g>
<defs>
<clipPath id="clip0_1522_653">
<rect width="59" height="59" fill="white"/>
</clipPath>
</defs>
</svg>
